<svg xmlns="http://www.w3.org/2000/svg" viewBox="0 0 100 100" fill="none">
  <defs>
    <linearGradient id="cornerGold" x1="0%" y1="0%" x2="100%" y2="100%">
      <stop offset="0%" stop-color="#C59B4E"/>
      <stop offset="50%" stop-color="#E5CF98"/>
      <stop offset="100%" stop-color="#9E6F22"/>
    </linearGradient>
  </defs>
  <!-- Outer corner frame line -->
  <path d="M4 96 L4 20 C4 11.16 11.16 4 20 4 L96 4" stroke="url(#cornerGold)" stroke-width="1.5" stroke-linecap="round"/>
  <!-- Inset corner border line -->
  <path d="M12 96 L12 24 C12 17.37 17.37 12 24 12 L96 12" stroke="url(#cornerGold)" stroke-width="0.8" stroke-dasharray="3 3"/>
  <!-- Ornate scroll corner flourish -->
  <path d="M22 22 C26 16 34 16 38 20 C42 24 38 32 30 30 C24 28 26 22 30 22 C33 22 34 25 32 26" stroke="url(#cornerGold)" stroke-width="1.2" fill="none"/>
  <path d="M20 38 C16 34 16 26 20 22" stroke="url(#cornerGold)" stroke-width="1.2" fill="none"/>
  <path d="M14 14 L20 20" stroke="url(#cornerGold)" stroke-width="1"/>
  <circle cx="8" cy="8" r="2.5" fill="url(#cornerGold)"/>
  <path d="M30 16 C34 10 44 10 50 14" stroke="url(#cornerGold)" stroke-width="0.8" fill="none"/>
  <path d="M16 30 C10 34 10 44 14 50" stroke="url(#cornerGold)" stroke-width="0.8" fill="none"/>
</svg>
